<svg xmlns="http://www.w3.org/2000/svg" xmlns:xlink="http://www.w3.org/1999/xlink" width="375" height="812" viewBox="0 0 375 812">
  <defs>
    <linearGradient id="linear-gradient" x1="0.5" y1="0.867" x2="0.5" y2="-0.071" gradientUnits="objectBoundingBox">
      <stop offset="0" stop-color="#a1a0b9"/>
      <stop offset="1" stop-color="#6b6b8d"/>
    </linearGradient>
    <linearGradient id="linear-gradient-2" x1="0.292" y1="0.841" x2="0.131" y2="0.914" gradientUnits="objectBoundingBox">
      <stop offset="0" stop-color="#fff"/>
      <stop offset="1" stop-color="#a1a0b9"/>
    </linearGradient>
    <linearGradient id="linear-gradient-3" x1="0.5" y1="-1.118" x2="0.475" y2="0.631" gradientUnits="objectBoundingBox">
      <stop offset="0" stop-color="#6b6b8d"/>
      <stop offset="1" stop-color="#a1a0b9"/>
    </linearGradient>
    <linearGradient id="linear-gradient-4" x1="0.5" y1="0.102" x2="0.5" y2="2.842" gradientUnits="objectBoundingBox">
      <stop offset="0" stop-color="#a1a0b9"/>
      <stop offset="0.308" stop-color="#828298"/>
      <stop offset="1" stop-color="#6b6b8d"/>
    </linearGradient>
    <filter id="Path_448" x="-13.5" y="583.865" width="402" height="233.635" filterUnits="userSpaceOnUse">
      <feOffset dy="-9" input="SourceAlpha"/>
      <feGaussianBlur stdDeviation="4.5" result="blur"/>
      <feFlood flood-opacity="0.161"/>
      <feComposite operator="in" in2="blur"/>
      <feComposite in="SourceGraphic"/>
    </filter>
    <linearGradient id="linear-gradient-5" x1="0.5" y1="2.931" x2="0.27" y2="0.5" gradientUnits="objectBoundingBox">
      <stop offset="0" stop-color="#8c8ba5"/>
      <stop offset="1" stop-color="#d3d2ed"/>
    </linearGradient>
    <filter id="Rectangle_128" x="-108" y="749" width="32" height="9" filterUnits="userSpaceOnUse">
      <feOffset dx="2" dy="2" input="SourceAlpha"/>
      <feGaussianBlur stdDeviation="1" result="blur-2"/>
      <feFlood flood-color="#636280" flood-opacity="0.776"/>
      <feComposite operator="in" in2="blur-2"/>
      <feComposite in="SourceGraphic"/>
    </filter>
    <filter id="Rectangle_129" x="-108" y="757" width="32" height="9" filterUnits="userSpaceOnUse">
      <feOffset dx="2" dy="2" input="SourceAlpha"/>
      <feGaussianBlur stdDeviation="1" result="blur-3"/>
      <feFlood flood-color="#636280" flood-opacity="0.776"/>
      <feComposite operator="in" in2="blur-3"/>
      <feComposite in="SourceGraphic"/>
    </filter>
    <filter id="Rectangle_130" x="-108" y="765" width="32" height="9" filterUnits="userSpaceOnUse">
      <feOffset dx="2" dy="2" input="SourceAlpha"/>
      <feGaussianBlur stdDeviation="1" result="blur-4"/>
      <feFlood flood-color="#636280" flood-opacity="0.776"/>
      <feComposite operator="in" in2="blur-4"/>
      <feComposite in="SourceGraphic"/>
    </filter>
    <linearGradient id="linear-gradient-8" x1="0.049" y1="0.091" x2="0.67" y2="0.604" gradientUnits="objectBoundingBox">
      <stop offset="0" stop-color="#fff"/>
      <stop offset="1" stop-color="#a4a3bc"/>
    </linearGradient>
    <filter id="Path_424" x="-412.428" y="744" width="33.234" height="34" filterUnits="userSpaceOnUse">
      <feOffset dx="2" dy="2" input="SourceAlpha"/>
      <feGaussianBlur stdDeviation="1" result="blur-5"/>
      <feFlood flood-color="#575672" flood-opacity="0.718"/>
      <feComposite operator="in" in2="blur-5"/>
      <feComposite in="SourceGraphic"/>
    </filter>
    <clipPath id="clip-Dashboard_1">
      <rect width="375" height="812"/>
    </clipPath>
  </defs>
  <g id="Dashboard_1" data-name="Dashboard 1" clip-path="url(#clip-Dashboard_1)">
    <rect width="375" height="812" fill="url(#linear-gradient)"/>
    <g id="Dashboard_Frame" data-name="Dashboard Frame" transform="translate(0 1)">
      <path id="Path_450" data-name="Path 450" d="M2388,496.454V717.965h376.913l-1.483-222.353a334.608,334.608,0,0,0-375.05.748" transform="translate(-2388 76.035)" opacity="0.368" fill="url(#linear-gradient-2)"/>
      <path id="Path_449" data-name="Path 449" d="M2388,494.795v215.17h376.913l-1.483-215.988a342.8,342.8,0,0,0-375.05.726" transform="translate(-2388 102.035)" fill="url(#linear-gradient-3)"/>
      <g transform="matrix(1, 0, 0, 1, 0, -1)" filter="url(#Path_448)">
        <path id="Path_448-2" data-name="Path 448" d="M2762.965,593.071a280.625,280.625,0,0,0-375-1.471V727.135h374.609Z" transform="translate(-2387.97 85.86)" fill="url(#linear-gradient-4)"/>
      </g>
      <g id="Menu_Icon" data-name="Menu Icon" transform="translate(-426 -7)">
        <g transform="matrix(1, 0, 0, 1, 426, 6)" filter="url(#Rectangle_128)">
          <rect id="Rectangle_128-2" data-name="Rectangle 128" width="26" height="3" rx="1.5" transform="translate(-107 750)" fill="url(#linear-gradient-5)"/>
        </g>
        <g transform="matrix(1, 0, 0, 1, 426, 6)" filter="url(#Rectangle_129)">
          <rect id="Rectangle_129-2" data-name="Rectangle 129" width="26" height="3" rx="1.5" transform="translate(-107 758)" fill="url(#linear-gradient-5)"/>
        </g>
        <g transform="matrix(1, 0, 0, 1, 426, 6)" filter="url(#Rectangle_130)">
          <rect id="Rectangle_130-2" data-name="Rectangle 130" width="26" height="3" rx="1.5" transform="translate(-107 766)" fill="url(#linear-gradient-5)"/>
        </g>
      </g>
      <g id="Dashboard_Icon" data-name="Dashboard Icon" transform="translate(-1345.079 391.61)">
        <g id="Group_118" data-name="Group 118" transform="translate(933.65 352.39)">
          <g transform="matrix(1, 0, 0, 1, 411.43, -745)" filter="url(#Path_424)">
            <path id="Path_424-2" data-name="Path 424" d="M947.267,352.39a13.832,13.832,0,0,0-13.617,14v14h13.617a14.005,14.005,0,0,0,0-28Zm0,24.667h-10.39V366.39a10.4,10.4,0,1,1,10.39,10.667Z" transform="translate(-1345.08 392.61)" fill="url(#linear-gradient-8)"/>
          </g>
        </g>
      </g>
    </g>
  </g>
</svg>
