<svg xmlns="http://www.w3.org/2000/svg" xmlns:xlink="http://www.w3.org/1999/xlink" width="375" height="812" viewBox="0 0 375 812">
  <defs>
    <linearGradient id="linear-gradient" x1="0.438" y1="0.195" x2="0.711" y2="0.5" gradientUnits="objectBoundingBox">
      <stop offset="0" stop-color="#8c8ba5"/>
      <stop offset="1" stop-color="#a4a3bc"/>
    </linearGradient>
    <linearGradient id="linear-gradient-2" x1="0.5" y1="0.972" x2="0.5" y2="-0.071" gradientUnits="objectBoundingBox">
      <stop offset="0" stop-color="#efefef"/>
      <stop offset="1" stop-color="#e39684"/>
    </linearGradient>
    <radialGradient id="radial-gradient" cx="0.5" cy="0.423" r="0.631" gradientTransform="matrix(0.402, 0.916, -0.637, 0.279, 0.569, -0.153)" gradientUnits="objectBoundingBox">
      <stop offset="0" stop-color="#706f93"/>
      <stop offset="1" stop-color="#fff" stop-opacity="0"/>
    </radialGradient>
    <clipPath id="clip-Home_1_9">
      <rect width="375" height="812"/>
    </clipPath>
  </defs>
  <g id="Home_1_9" data-name="Home 1 – 9" clip-path="url(#clip-Home_1_9)">
    <rect width="375" height="812" fill="url(#linear-gradient-2)"/>
    <g id="Base_Gradient" data-name="Base Gradient" transform="translate(-513.776 -315.354)" fill="url(#radial-gradient)">
      <path d="M 621.7762451171875 1442.208984375 C 600.5866088867188 1442.208984375 579.2171630859375 1440.957275390625 558.26171875 1438.488159179688 C 537.6094970703125 1436.055053710938 516.8575439453125 1432.380615234375 496.5822448730469 1427.567260742188 C 476.5687866210938 1422.81591796875 456.5389709472656 1416.841064453125 437.0487976074219 1409.80810546875 C 417.7764282226562 1402.853759765625 398.5733337402344 1394.69970703125 379.97314453125 1385.572509765625 C 361.54443359375 1376.529541015625 343.2733459472656 1366.318359375 325.6673278808594 1355.222534179688 C 308.1862487792969 1344.205200195312 290.9520568847656 1332.058471679688 274.4436950683594 1319.119384765625 C 258.0148010253906 1306.24267578125 241.9227905273438 1292.282104492188 226.6146087646484 1277.625610351562 C 211.3437042236328 1263.004516601562 196.4989776611328 1247.351928710938 182.4927978515625 1231.102661132812 C 168.4864196777344 1214.853271484375 154.9942474365234 1197.630493164062 142.3909759521484 1179.913208007812 C 129.7566070556641 1162.151977539062 117.7220611572266 1143.481079101562 106.621696472168 1124.419067382812 C 95.46733856201172 1105.26416015625 84.99588012695312 1085.26708984375 75.49787902832031 1064.98291015625 C 65.931884765625 1044.55322265625 57.12842559814453 1023.3515625 49.33206176757812 1001.967041015625 C 41.46297073364258 980.3826904296875 34.43278884887695 958.0985107421875 28.43679046630859 935.7337646484375 C 22.37297248840332 913.1157836914062 17.22133636474609 889.8712158203125 13.12479019165039 866.645751953125 C 8.974427223205566 843.1157836914062 5.806427001953125 819.032470703125 3.708245038986206 795.0652465820312 C 1.579517841339111 770.7457885742188 0.5000633001327515 745.9457397460938 0.5000633001327515 721.3544921875 C 0.5000633001327515 696.7632446289062 1.579517841339111 671.9631958007812 3.708245038986206 647.6437377929688 C 5.806427001953125 623.676513671875 8.974427223205566 599.5932006835938 13.12479019165039 576.063232421875 C 17.22133636474609 552.8377685546875 22.37297248840332 529.5932006835938 28.43679046630859 506.9752197265625 C 34.43278884887695 484.6105041503906 41.46297073364258 462.3263244628906 49.33206176757812 440.741943359375 C 57.12842559814453 419.3573913574219 65.931884765625 398.15576171875 75.49787902832031 377.7261352539062 C 84.99588012695312 357.4419555664062 95.46733856201172 337.4448547363281 106.621696472168 318.2899475097656 C 117.7220611572266 299.2279357910156 129.7566070556641 280.5570373535156 142.3909759521484 262.7957763671875 C 154.9942474365234 245.0784912109375 168.4864196777344 227.8557586669922 182.4927978515625 211.6063079833984 C 196.4989776611328 195.3570404052734 211.3437042236328 179.7044982910156 226.6146087646484 165.0834045410156 C 241.9227905273438 150.4268493652344 258.0148010253906 136.46630859375 274.4436950683594 123.5895843505859 C 290.9520568847656 110.6504898071289 308.1862487792969 98.50376129150391 325.6673278808594 87.48649597167969 C 343.2733459472656 76.39067077636719 361.54443359375 66.17939758300781 379.97314453125 57.13649368286133 C 398.5733337402344 48.00922012329102 417.7764282226562 39.85522079467773 437.0487976074219 32.90085601806641 C 456.5389709472656 25.86794662475586 476.5687866210938 19.89303779602051 496.5822448730469 15.14176464080811 C 516.8575439453125 10.32831001281738 537.6094970703125 6.653946876525879 558.26171875 4.220855712890625 C 579.2171630859375 1.751764893531799 600.5866088867188 0.4999467432498932 621.7762451171875 0.4999467432498932 C 642.9658813476562 0.4999467432498932 664.3353271484375 1.751764893531799 685.290771484375 4.220855712890625 C 705.9429931640625 6.653946876525879 726.6949462890625 10.32831001281738 746.9703979492188 15.14176464080811 C 766.9837036132812 19.89303779602051 787.013671875 25.86794662475586 806.50390625 32.90085601806641 C 825.7762451171875 39.85522079467773 844.9791259765625 48.00922012329102 863.579345703125 57.13649368286133 C 882.008056640625 66.17939758300781 900.2791748046875 76.39067077636719 917.8851318359375 87.48649597167969 C 935.366455078125 98.50376129150391 952.6004028320312 110.6504898071289 969.1087646484375 123.5895843505859 C 985.5379028320312 136.46630859375 1001.6298828125 150.4268493652344 1016.937866210938 165.0834045410156 C 1032.208984375 179.7044982910156 1047.0537109375 195.3570404052734 1061.059692382812 211.6063079833984 C 1075.066040039062 227.8557586669922 1088.558227539062 245.0784912109375 1101.161499023438 262.7957763671875 C 1113.7958984375 280.5570373535156 1125.830444335938 299.2279357910156 1136.930786132812 318.2899475097656 C 1148.085205078125 337.4448547363281 1158.556762695312 357.4419555664062 1168.054565429688 377.7261352539062 C 1177.62060546875 398.15576171875 1186.424072265625 419.3573913574219 1194.220458984375 440.741943359375 C 1202.089477539062 462.3263244628906 1209.119750976562 484.6105041503906 1215.11572265625 506.9752197265625 C 1221.179565429688 529.5932006835938 1226.331176757812 552.8377685546875 1230.427734375 576.063232421875 C 1234.578002929688 599.5932006835938 1237.746215820312 623.676513671875 1239.84423828125 647.6437377929688 C 1241.973022460938 671.9631958007812 1243.052368164062 696.7632446289062 1243.052368164062 721.3544921875 C 1243.052368164062 745.9457397460938 1241.973022460938 770.7457885742188 1239.84423828125 795.0652465820312 C 1237.746215820312 819.032470703125 1234.578002929688 843.1157836914062 1230.427734375 866.645751953125 C 1226.331176757812 889.8712158203125 1221.179565429688 913.1157836914062 1215.11572265625 935.7337646484375 C 1209.119750976562 958.0985107421875 1202.089477539062 980.3826904296875 1194.220458984375 1001.967041015625 C 1186.424072265625 1023.3515625 1177.62060546875 1044.55322265625 1168.054565429688 1064.98291015625 C 1158.556762695312 1085.26708984375 1148.085205078125 1105.26416015625 1136.930786132812 1124.419067382812 C 1125.830444335938 1143.481079101562 1113.7958984375 1162.151977539062 1101.161499023438 1179.913208007812 C 1088.558227539062 1197.630493164062 1075.066040039062 1214.853271484375 1061.059692382812 1231.102661132812 C 1047.0537109375 1247.351928710938 1032.208984375 1263.004516601562 1016.937866210938 1277.625610351562 C 1001.6298828125 1292.282104492188 985.5379028320312 1306.24267578125 969.1087646484375 1319.119384765625 C 952.6004028320312 1332.058471679688 935.366455078125 1344.205200195312 917.8851318359375 1355.222534179688 C 900.2791748046875 1366.318359375 882.008056640625 1376.529541015625 863.579345703125 1385.572509765625 C 844.9791259765625 1394.69970703125 825.7762451171875 1402.853759765625 806.50390625 1409.80810546875 C 787.013671875 1416.841064453125 766.9837036132812 1422.81591796875 746.9703979492188 1427.567260742188 C 726.6949462890625 1432.380615234375 705.9429931640625 1436.055053710938 685.290771484375 1438.488159179688 C 664.3353271484375 1440.957275390625 642.9658813476562 1442.208984375 621.7762451171875 1442.208984375 Z" stroke="none"/>
      <path d="M 621.7762451171875 1 C 600.6060791015625 1 579.2564086914062 2.250732421875 558.3202514648438 4.7174072265625 C 537.6871337890625 7.1483154296875 516.9544067382812 10.8192138671875 496.6976928710938 15.6282958984375 C 476.70263671875 20.375 456.6909790039062 26.3447265625 437.2184448242188 33.3712158203125 C 417.963134765625 40.3194580078125 398.7771606445312 48.4661865234375 380.1935424804688 57.585205078125 C 361.7805786132812 66.6204833984375 343.5249633789062 76.822998046875 325.93408203125 87.9095458984375 C 308.4671630859375 98.917724609375 291.2471313476562 111.054443359375 274.7522583007812 123.9830322265625 C 258.3360595703125 136.849609375 242.256591796875 150.7994384765625 226.96044921875 165.4444580078125 C 211.700927734375 180.0546875 196.8673095703125 195.695556640625 182.8714599609375 211.9326171875 C 168.8753662109375 228.1705322265625 155.392822265625 245.380859375 142.7984619140625 263.0858154296875 C 130.1728515625 280.83447265625 118.1466064453125 299.492431640625 107.0538330078125 318.5416259765625 C 95.906982421875 337.68359375 85.4422607421875 357.6673583984375 75.9508056640625 377.9381103515625 C 66.3909912109375 398.3544921875 57.5931396484375 419.5422973632812 49.8018798828125 440.9132080078125 C 41.937744140625 462.4839477539062 34.911865234375 484.7539672851562 28.919677734375 507.1046752929688 C 22.8597412109375 529.7086791992188 17.711181640625 552.9390258789062 13.6171875 576.150146484375 C 9.4693603515625 599.665771484375 6.3031005859375 623.7344970703125 4.2064208984375 647.6873779296875 C 2.0787353515625 671.9924926757812 1.0001220703125 696.777587890625 1.0001220703125 721.3544921875 C 1.0001220703125 745.931396484375 2.0787353515625 770.7164916992188 4.2064208984375 795.0216064453125 C 6.3031005859375 818.9744873046875 9.4693603515625 843.043212890625 13.6171875 866.558837890625 C 17.711181640625 889.7699584960938 22.8597412109375 913.0003051757812 28.919677734375 935.6043090820312 C 34.911865234375 957.955078125 41.937744140625 980.2250366210938 49.8018798828125 1001.795776367188 C 57.5931396484375 1023.166687011719 66.3909912109375 1044.3544921875 75.9508056640625 1064.770874023438 C 85.4422607421875 1085.041625976562 95.906982421875 1105.025390625 107.0538330078125 1124.167358398438 C 118.1466064453125 1143.216552734375 130.1728515625 1161.87451171875 142.7984619140625 1179.623291015625 C 155.392822265625 1197.328125 168.8753662109375 1214.538452148438 182.8714599609375 1230.7763671875 C 196.8673095703125 1247.013427734375 211.700927734375 1262.654296875 226.96044921875 1277.264526367188 C 242.256591796875 1291.909545898438 258.3360595703125 1305.859375 274.7522583007812 1318.725952148438 C 291.2471313476562 1331.654541015625 308.4671630859375 1343.791259765625 325.93408203125 1354.799438476562 C 343.5249633789062 1365.885986328125 361.7805786132812 1376.088500976562 380.1935424804688 1385.123779296875 C 398.7771606445312 1394.242797851562 417.963134765625 1402.389526367188 437.2184448242188 1409.337768554688 C 456.6909790039062 1416.3642578125 476.70263671875 1422.333984375 496.6976928710938 1427.080688476562 C 516.9544067382812 1431.889770507812 537.6871337890625 1435.560668945312 558.3202514648438 1437.991577148438 C 579.2564086914062 1440.458251953125 600.6060791015625 1441.708984375 621.7762451171875 1441.708984375 C 642.9464111328125 1441.708984375 664.2960815429688 1440.458251953125 685.2322387695312 1437.991577148438 C 705.8653564453125 1435.560668945312 726.5982666015625 1431.889770507812 746.85498046875 1427.080688476562 C 766.849853515625 1422.333984375 786.8615112304688 1416.3642578125 806.3341064453125 1409.337768554688 C 825.58935546875 1402.389526367188 844.7753295898438 1394.242797851562 863.359130859375 1385.123779296875 C 881.7720947265625 1376.088500976562 900.0275268554688 1365.885986328125 917.61865234375 1354.799438476562 C 935.0853271484375 1343.791259765625 952.3055419921875 1331.654541015625 968.8004150390625 1318.725952148438 C 985.2164306640625 1305.859375 1001.2958984375 1291.909545898438 1016.592041015625 1277.264526367188 C 1031.851684570312 1262.654296875 1046.685302734375 1247.013427734375 1060.680908203125 1230.7763671875 C 1074.677368164062 1214.538452148438 1088.159912109375 1197.328125 1100.754028320312 1179.623291015625 C 1113.379638671875 1161.87451171875 1125.406005859375 1143.216552734375 1136.498657226562 1124.167358398438 C 1147.6455078125 1105.025390625 1158.110229492188 1085.041625976562 1167.601928710938 1064.770874023438 C 1177.161499023438 1044.3544921875 1185.959350585938 1023.166687011719 1193.750610351562 1001.795776367188 C 1201.61474609375 980.2250366210938 1208.640625 957.955078125 1214.6328125 935.6043090820312 C 1220.692749023438 913.0003051757812 1225.84130859375 889.7699584960938 1229.935302734375 866.558837890625 C 1234.083129882812 843.043212890625 1237.249389648438 818.9744873046875 1239.346069335938 795.0216064453125 C 1241.473754882812 770.7164916992188 1242.552368164062 745.931396484375 1242.552368164062 721.3544921875 C 1242.552368164062 696.777587890625 1241.473754882812 671.9924926757812 1239.346069335938 647.6873779296875 C 1237.249389648438 623.7344970703125 1234.083129882812 599.665771484375 1229.935302734375 576.150146484375 C 1225.84130859375 552.9390258789062 1220.692749023438 529.7086791992188 1214.6328125 507.1046752929688 C 1208.640625 484.7539672851562 1201.61474609375 462.4839477539062 1193.750610351562 440.9132080078125 C 1185.959350585938 419.5422973632812 1177.161499023438 398.3544921875 1167.601928710938 377.9381103515625 C 1158.110229492188 357.6673583984375 1147.6455078125 337.68359375 1136.498657226562 318.5416259765625 C 1125.406005859375 299.492431640625 1113.379638671875 280.83447265625 1100.754028320312 263.0858154296875 C 1088.159912109375 245.380859375 1074.677368164062 228.1705322265625 1060.680908203125 211.9326171875 C 1046.685302734375 195.695556640625 1031.851684570312 180.0546875 1016.592041015625 165.4444580078125 C 1001.2958984375 150.7994384765625 985.2164306640625 136.849609375 968.8004150390625 123.9830322265625 C 952.3055419921875 111.054443359375 935.0853271484375 98.917724609375 917.61865234375 87.9095458984375 C 900.0275268554688 76.822998046875 881.7720947265625 66.6204833984375 863.359130859375 57.585205078125 C 844.7753295898438 48.4661865234375 825.58935546875 40.3194580078125 806.3341064453125 33.3712158203125 C 786.8615112304688 26.3447265625 766.849853515625 20.375 746.85498046875 15.6282958984375 C 726.5982666015625 10.8192138671875 705.8653564453125 7.1483154296875 685.2322387695312 4.7174072265625 C 664.2960815429688 2.250732421875 642.9464111328125 1 621.7762451171875 1 M 621.7762451171875 0 C 965.1738891601562 0 1243.552368164062 322.96142578125 1243.552368164062 721.3544921875 C 1243.552368164062 1119.74755859375 965.1738891601562 1442.708984375 621.7762451171875 1442.708984375 C 278.3787841796875 1442.708984375 0.0001220703125 1119.74755859375 0.0001220703125 721.3544921875 C 0.0001220703125 322.96142578125 278.3787841796875 0 621.7762451171875 0 Z" stroke="none" fill="#9393ae"/>
    </g>
  </g>
</svg>
