<svg xmlns="http://www.w3.org/2000/svg" xmlns:xlink="http://www.w3.org/1999/xlink" width="375" height="812" viewBox="0 0 375 812">
  <defs>
    <linearGradient id="linear-gradient" x1="0.5" y1="0.867" x2="0.5" y2="-0.071" gradientUnits="objectBoundingBox">
      <stop offset="0" stop-color="#a1a0b9"/>
      <stop offset="1" stop-color="#6b6b8d"/>
    </linearGradient>
    <radialGradient id="radial-gradient" cx="0.5" cy="0.423" r="0.503" gradientTransform="translate(0.819 -0.056) rotate(90) scale(1 0.72)" gradientUnits="objectBoundingBox">
      <stop offset="0" stop-color="#e39684"/>
      <stop offset="1" stop-color="#706f93" stop-opacity="0"/>
    </radialGradient>
    <radialGradient id="radial-gradient-2" cx="0.78" cy="0.27" r="0.793" gradientTransform="matrix(-0.632, 0.775, -0.775, -0.632, 1.481, -0.164)" xlink:href="#linear-gradient"/>
    <linearGradient id="linear-gradient-2" x1="1.046" y1="-0.125" x2="0" y2="0.59" xlink:href="#linear-gradient"/>
    <filter id="Path_515" x="119.365" y="504.781" width="6" height="6.328" filterUnits="userSpaceOnUse">
      <feOffset dy="3" input="SourceAlpha"/>
      <feGaussianBlur stdDeviation="1" result="blur"/>
      <feFlood flood-color="#575672" flood-opacity="0.82"/>
      <feComposite operator="in" in2="blur"/>
      <feComposite in="SourceGraphic"/>
    </filter>
    <clipPath id="clip-Sleep_Log_A_3">
      <rect width="375" height="812"/>
    </clipPath>
  </defs>
  <g id="Sleep_Log_A_3" data-name="Sleep Log A – 3" clip-path="url(#clip-Sleep_Log_A_3)">
    <rect width="375" height="812" fill="url(#linear-gradient)"/>
    <ellipse id="Ellipse_16" data-name="Ellipse 16" cx="943" cy="907" rx="943" ry="907" transform="translate(-755 -832)" fill="url(#radial-gradient)"/>
    <ellipse id="Ellipse_55" data-name="Ellipse 55" cx="110.5" cy="109.5" rx="110.5" ry="109.5" transform="matrix(0.998, 0.07, -0.07, 0.998, 58.511, 263.662)" fill="url(#radial-gradient-2)"/>
    <g id="Group_179" data-name="Group 179" transform="translate(-29.546 -26.108)">
      <path id="Path_514" data-name="Path 514" d="M175.815,19.712A111.129,111.129,0,0,0,163.859,9.364a110.375,110.375,0,0,1-154.5,154.5A110.38,110.38,0,1,0,175.815,19.712Z" transform="translate(93.286 307.636)" fill="url(#linear-gradient-2)"/>
      <g transform="matrix(1, 0, 0, 1, 29.55, 26.11)" filter="url(#Path_515)">
        <path id="Path_515-2" data-name="Path 515" d="M0,1Z" transform="translate(122.36 503.78)" fill="#d3d1f0"/>
      </g>
    </g>
  </g>
</svg>
