<svg xmlns="http://www.w3.org/2000/svg" xmlns:xlink="http://www.w3.org/1999/xlink" width="375" height="812" viewBox="0 0 375 812">
  <defs>
    <linearGradient id="linear-gradient" x1="0.27" y1="0.165" x2="0.73" y2="0.758" gradientUnits="objectBoundingBox">
      <stop offset="0" stop-color="#8c8ba5"/>
      <stop offset="1" stop-color="#a4a3bc"/>
    </linearGradient>
    <filter id="Path_371" x="-85.624" y="13.865" width="559.344" height="795.631" filterUnits="userSpaceOnUse">
      <feOffset dx="6" dy="6" input="SourceAlpha"/>
      <feGaussianBlur stdDeviation="7.5" result="blur"/>
      <feFlood flood-color="#575672" flood-opacity="0.482"/>
      <feComposite operator="in" in2="blur"/>
      <feComposite in="SourceGraphic"/>
    </filter>
    <linearGradient id="linear-gradient-2" x1="0.319" y1="0.34" x2="0.639" y2="0.881" xlink:href="#linear-gradient"/>
    <filter id="Path_372" x="-25.136" y="206.459" width="398.758" height="427.962" filterUnits="userSpaceOnUse">
      <feOffset dy="3" input="SourceAlpha"/>
      <feGaussianBlur stdDeviation="3" result="blur-2"/>
      <feFlood flood-color="#706f93"/>
      <feComposite operator="in" in2="blur-2"/>
      <feComposite in="SourceGraphic"/>
    </filter>
    <linearGradient id="linear-gradient-3" x1="0.527" y1="0.752" x2="0.165" gradientUnits="objectBoundingBox">
      <stop offset="0" stop-color="#fff"/>
      <stop offset="1" stop-color="#a4a3bc"/>
    </linearGradient>
    <filter id="Path_407" x="31.376" y="259.862" width="293.631" height="304.276" filterUnits="userSpaceOnUse">
      <feOffset dy="3" input="SourceAlpha"/>
      <feGaussianBlur stdDeviation="3" result="blur-3"/>
      <feFlood flood-opacity="0.161"/>
      <feComposite operator="in" in2="blur-3"/>
      <feComposite in="SourceGraphic"/>
    </filter>
    <linearGradient id="linear-gradient-4" x1="0.298" y1="0.172" x2="0.63" y2="0.81" xlink:href="#linear-gradient"/>
    <filter id="Path_373" x="31.376" y="258.99" width="293.631" height="304.276" filterUnits="userSpaceOnUse">
      <feOffset dy="3" input="SourceAlpha"/>
      <feGaussianBlur stdDeviation="3" result="blur-4"/>
      <feFlood flood-color="#706f93"/>
      <feComposite operator="in" in2="blur-4"/>
      <feComposite in="SourceGraphic"/>
    </filter>
    <linearGradient id="linear-gradient-5" x1="0.537" y1="0.542" x2="0.183" y2="0.235" gradientUnits="objectBoundingBox">
      <stop offset="0" stop-color="#8887a2"/>
      <stop offset="1" stop-color="#a4a3bc"/>
    </linearGradient>
    <filter id="Path_424" x="140.258" y="368.94" width="104.484" height="107" filterUnits="userSpaceOnUse">
      <feOffset dx="5" dy="5" input="SourceAlpha"/>
      <feGaussianBlur stdDeviation="2.5" result="blur-5"/>
      <feFlood flood-color="#575672" flood-opacity="0.482"/>
      <feComposite operator="in" in2="blur-5"/>
      <feComposite in="SourceGraphic"/>
    </filter>
    <clipPath id="clip-Welcome_1">
      <rect width="375" height="812"/>
    </clipPath>
  </defs>
  <g id="Welcome_1" data-name="Welcome – 1" clip-path="url(#clip-Welcome_1)">
    <rect width="375" height="812" fill="#9493ad"/>
    <g transform="matrix(1, 0, 0, 1, 0, 0)" filter="url(#Path_371)">
      <path id="Path_371-2" data-name="Path 371" d="M.087,180.119S-5.918,50.815,81.751,18.144C133-.949,187.694-3.305,240.976,3.409,292.441,9.893,348.312,20.5,396.836,41.34,427.993,54.721,457.5,75.448,477.5,105.653c54.628,82.488,36.565,214.754,21.071,308.46-11.078,66.975-27.375,143.146-66.786,196.719-27.379,37.216-65.23,62.968-101.747,87.037-37.31,24.6-76.245,47.477-119.939,52.148-48.354,5.172-77.668-22.79-101.275-67.063C86.588,641.25,69.122,596.3,54.855,550.4,18.014,431.84,2.638,305.4.087,180.119Z" transform="translate(445.22 781) rotate(180)" fill="url(#linear-gradient)"/>
    </g>
    <g transform="matrix(1, 0, 0, 1, 0, 0)" filter="url(#Path_372)">
      <path id="Path_372-2" data-name="Path 372" d="M14.92,61.732A92.189,92.189,0,0,1,29.169,35.88C51.566,8.112,87.609-.8,121.4.055c0,0,196.866,10.677,254.07,109.822,0,0,11.888,29.744,0,76.268-12.425,48.637-37.982,98.749-65.139,140.749-19.568,30.262-42.094,55.662-75.013,70.667-32.033,14.6-68.029,13.843-102.181,10.088-35.892-3.947-72.685-17.243-95.518-47.523-23.153-30.7-31.47-70.278-34.526-108.2-3.42-42.418-4.7-86.479-.22-128.811C4.949,103.484,7.627,81.272,14.92,61.732Z" transform="translate(364.62 622.42) rotate(180)" fill="url(#linear-gradient-2)"/>
    </g>
    <g transform="matrix(1, 0, 0, 1, 0, 0)" filter="url(#Path_407)">
      <path id="Path_407-2" data-name="Path 407" d="M1.394,157.254c.966-11.427,2.35-22.74,3.881-33.635,2.829-20.136,6.62-40.328,13.687-59.4,4.548-12.282,9.86-24.794,18.6-34.6,9.975-11.194,22.613-15.4,36.407-19.44C103.265,1.6,134.335-2.3,164.7,1.385c29.067,3.526,56.955,14.524,79.954,33.276,0,0,38.8,36.033,29.561,77.759-6.025,27.209-21.737,52.177-37.1,74.74-33.319,48.925-68.671,98.687-132.249,99.116,0,0-93.6.633-102.84-66.383C-.747,199.846-.386,178.348,1.394,157.254Z" transform="translate(316.01 552.14) rotate(180)" fill="url(#linear-gradient-3)"/>
    </g>
    <g transform="matrix(1, 0, 0, 1, 0, 0)" filter="url(#Path_373)">
      <path id="Path_373-2" data-name="Path 373" d="M1.394,157.254c.966-11.427,2.35-22.74,3.881-33.635,2.829-20.136,6.62-40.328,13.687-59.4,4.548-12.282,9.86-24.794,18.6-34.6,9.975-11.194,22.613-15.4,36.407-19.44C103.265,1.6,134.335-2.3,164.7,1.385c29.067,3.526,56.955,14.524,79.954,33.276,0,0,38.8,36.033,29.561,77.759-6.025,27.209-21.737,52.177-37.1,74.74-33.319,48.925-68.671,98.687-132.249,99.116,0,0-93.6.633-102.84-66.383C-.747,199.846-.386,178.348,1.394,157.254Z" transform="translate(316.01 551.27) rotate(180)" fill="url(#linear-gradient-4)"/>
    </g>
    <g id="Group_119" data-name="Group 119" transform="translate(-790.892 19.05)">
      <g id="Group_118" data-name="Group 118" transform="translate(933.65 352.39)">
        <g transform="matrix(1, 0, 0, 1, -142.76, -371.44)" filter="url(#Path_424)">
          <path id="Path_424-2" data-name="Path 424" d="M978.392,352.39c-24.666,0-44.742,20.649-44.742,46v46h44.742c24.666,0,44.742-20.623,44.742-46C1023.134,373.039,1003.058,352.39,978.392,352.39Zm0,81.048H944.255V398.39c0-19.314,15.3-35.021,34.137-35.021s34.163,15.707,34.163,35.021C1012.555,417.73,997.228,433.438,978.392,433.438Z" transform="translate(-790.89 19.05)" fill="url(#linear-gradient-5)"/>
        </g>
      </g>
    </g>
  </g>
</svg>
