<svg xmlns="http://www.w3.org/2000/svg" xmlns:xlink="http://www.w3.org/1999/xlink" width="331.35" height="372.54" viewBox="0 0 331.35 372.54">
  <defs>
    <linearGradient id="linear-gradient" x1="0.318" y1="0.168" x2="0.893" y2="0.345" gradientUnits="objectBoundingBox">
      <stop offset="0" stop-color="#706f93"/>
      <stop offset="1" stop-color="#a4a3bc"/>
    </linearGradient>
    <clipPath id="clip-path">
      <ellipse id="Ellipse_18" data-name="Ellipse 18" cx="165.675" cy="186.27" rx="165.675" ry="186.27" fill="url(#linear-gradient)"/>
    </clipPath>
  </defs>
  <g id="Group_329" data-name="Group 329" transform="translate(-19.825 -469.215)">
    <g id="Group_144" data-name="Group 144" transform="translate(18.635 482.1)">
      <g id="Group_141" data-name="Group 141" transform="translate(1.19 -12.885)" clip-path="url(#clip-path)">
        <path id="Path_474" data-name="Path 474" d="M10.269,127.121c-.56,5.327,8.185,10.079,7.155,20.934s.343,24.029,11.715,29.071,25.863-5.42,28.62-12.4,2.005,2.555,3.1,5.427c9.655,25.191,30.337,27.527,37.921,24.813s4.491,20.536,0,29.071c-4.474,8.527-11.375,31.777-17.579,43.025-5.9,10.67-26.7,58.721-28.785,63.538H245.746c-17.524-48.908-32.916-66.962-35.817-69.741-13.8-13.179-37.928-8.654-40.119-8.654s6.547-19.444,8.508-23.771c11.608-25.693,36.119-31.04,46.069-32.147h.007a42.251,42.251,0,0,1,4.257-.29c.12,0,.23.012.35.019,5.7-.618,14.832-2.66,16.326-9.423,0-.008-.007-.015,0-.031.137-1.1.227-2.065.275-2.934v-.019c.319-6.072-1.507-7.006-3.014-12.094-1.724-5.817-.058-5.207,1.531-7.952,2.235-3.879,1.205-5.038-.175-8.527s1.878-2.6,2.41-6.2c.518-3.49-2.41-7.365-3.79-10.855s1.38-5.038,3.794-7.755,5.171-7.747,4.824-10.461-19.653-22.482-23.1-27.137.4-10.473,0-14.34c-2.76-26.357-24.133-50.008-26.207-51.556s-3.457-5.412-6.208-7.751c-11.375-9.693-23.81-14.19-31.031-15.12C62.573-9.32,47.061,77.511,48.091,84.49s-2.8,2.748-6.208,3.49c-21.376,4.652-25.167,16.3-27.924,22.5S10.8,122.034,10.269,127.121Z" transform="translate(20.841 56.888)" fill="url(#linear-gradient)"/>
      </g>
    </g>
  </g>
</svg>
